<svg width="24" height="44" viewBox="0 0 24 44" fill="none" xmlns="http://www.w3.org/2000/svg">
<path d="M23.1208 40.0042C23.3009 40.1842 23.4436 40.3979 23.5411 40.6331C23.6385 40.8683 23.6886 41.1204 23.6886 41.375C23.6886 41.6296 23.6385 41.8816 23.5411 42.1168C23.4436 42.352 23.3009 42.5657 23.1208 42.7458C22.9408 42.9258 22.7271 43.0686 22.4919 43.166C22.2567 43.2634 22.0046 43.3136 21.7501 43.3136C21.4955 43.3136 21.2434 43.2634 21.0082 43.166C20.773 43.0686 20.5593 42.9258 20.3793 42.7458L1.00428 23.3708C0.824136 23.1908 0.681229 22.9771 0.583725 22.7419C0.486222 22.5067 0.436035 22.2546 0.436035 22C0.436035 21.7454 0.486222 21.4932 0.583725 21.258C0.681229 21.0228 0.824136 20.8091 1.00428 20.6292L20.3793 1.2542C20.7428 0.890644 21.2359 0.686401 21.7501 0.686401C22.2642 0.686401 22.7573 0.890644 23.1208 1.2542C23.4844 1.61775 23.6886 2.11084 23.6886 2.62498C23.6886 3.13912 23.4844 3.63221 23.1208 3.99576L5.1142 22L23.1208 40.0042Z" fill="white"/>
</svg>
