<svg width="27" height="27" viewBox="0 0 27 27" fill="none" xmlns="http://www.w3.org/2000/svg">
<path d="M26.0387 6.46002C26.3444 5.47401 26.4425 4.43537 26.3267 3.40958C26.211 2.3838 25.8839 1.39312 25.3662 0.500016C25.2785 0.347964 25.1522 0.221705 25.0001 0.133935C24.8481 0.0461646 24.6756 -2.30667e-05 24.5 1.63642e-05C23.3352 -0.00242167 22.186 0.267596 21.1442 0.788497C20.1024 1.3094 19.1969 2.06674 18.5 3.00002H15.5C14.8031 2.06674 13.8976 1.3094 12.8558 0.788497C11.814 0.267596 10.6648 -0.00242167 9.5 1.63642e-05C9.32443 -2.30667e-05 9.15193 0.0461646 8.99987 0.133935C8.84781 0.221705 8.72154 0.347964 8.63375 0.500016C8.11606 1.39312 7.78903 2.3838 7.67329 3.40958C7.55754 4.43537 7.65559 5.47401 7.96125 6.46002C7.34341 7.53841 7.01245 8.75723 7 10V11C7.0021 12.692 7.61634 14.3261 8.72928 15.6006C9.84222 16.875 11.3787 17.7038 13.055 17.9338C12.3708 18.8093 11.9994 19.8888 12 21V22H9C8.20435 22 7.44129 21.6839 6.87868 21.1213C6.31607 20.5587 6 19.7957 6 19C6 18.3434 5.87067 17.6932 5.6194 17.0866C5.36812 16.48 4.99983 15.9288 4.53553 15.4645C4.07124 15.0002 3.52005 14.6319 2.91342 14.3806C2.30679 14.1293 1.65661 14 1 14C0.734784 14 0.48043 14.1054 0.292893 14.2929C0.105357 14.4804 0 14.7348 0 15C0 15.2652 0.105357 15.5196 0.292893 15.7071C0.48043 15.8947 0.734784 16 1 16C1.79565 16 2.55871 16.3161 3.12132 16.8787C3.68393 17.4413 4 18.2044 4 19C4 20.3261 4.52678 21.5979 5.46447 22.5356C6.40215 23.4732 7.67392 24 9 24H12V26C12 26.2652 12.1054 26.5196 12.2929 26.7071C12.4804 26.8947 12.7348 27 13 27C13.2652 27 13.5196 26.8947 13.7071 26.7071C13.8946 26.5196 14 26.2652 14 26V21C14 20.2044 14.3161 19.4413 14.8787 18.8787C15.4413 18.3161 16.2044 18 17 18C17.7956 18 18.5587 18.3161 19.1213 18.8787C19.6839 19.4413 20 20.2044 20 21V26C20 26.2652 20.1054 26.5196 20.2929 26.7071C20.4804 26.8947 20.7348 27 21 27C21.2652 27 21.5196 26.8947 21.7071 26.7071C21.8946 26.5196 22 26.2652 22 26V21C22.0006 19.8888 21.6292 18.8093 20.945 17.9338C22.6213 17.7038 24.1578 16.875 25.2707 15.6006C26.3837 14.3261 26.9979 12.692 27 11V10C26.9875 8.75723 26.6566 7.53841 26.0387 6.46002ZM25 11C25 12.3261 24.4732 13.5979 23.5355 14.5356C22.5979 15.4732 21.3261 16 20 16H14C12.6739 16 11.4021 15.4732 10.4645 14.5356C9.52678 13.5979 9 12.3261 9 11V10C9.01226 9.00005 9.31164 8.02467 9.8625 7.19002C9.96519 7.05467 10.0317 6.89538 10.0558 6.7272C10.0798 6.55902 10.0606 6.38748 10 6.22877C9.73953 5.55701 9.61417 4.84046 9.63112 4.12018C9.64806 3.39989 9.80698 2.69003 10.0988 2.03127C10.9171 2.11931 11.7052 2.39041 12.4046 2.82448C13.104 3.25855 13.6966 3.84446 14.1388 4.53877C14.2288 4.67965 14.3528 4.79569 14.4994 4.87627C14.6459 4.95685 14.8103 4.99939 14.9775 5.00002H19.0212C19.1891 5.00002 19.3543 4.95777 19.5015 4.87716C19.6487 4.79656 19.7733 4.68018 19.8638 4.53877C20.3058 3.84439 20.8985 3.25844 21.5978 2.82436C22.2972 2.39029 23.0853 2.11922 23.9037 2.03127C24.1951 2.69019 24.3536 3.40014 24.3701 4.12043C24.3866 4.84071 24.2609 5.55718 24 6.22877C23.9396 6.38596 23.9193 6.55576 23.9412 6.72275C23.963 6.88974 24.0262 7.04864 24.125 7.18502C24.6813 8.01967 24.9851 8.99706 25 10V11Z" fill="white"/>
</svg>
