<svg width="51" height="47" viewBox="0 0 51 47" fill="none" xmlns="http://www.w3.org/2000/svg">
<path d="M36.4375 1C31.9203 1 27.9653 3.08174 25.5 6.60054C23.0347 3.08174 19.0797 1 14.5625 1C10.9667 1.00434 7.51942 2.53707 4.97684 5.26191C2.43426 7.98675 1.00405 11.6812 1 15.5347C1 31.9448 23.7041 45.2276 24.6709 45.7762C24.9258 45.9231 25.2106 46 25.5 46C25.7894 46 26.0742 45.9231 26.3291 45.7762C27.2959 45.2276 50 31.9448 50 15.5347C49.9959 11.6812 48.5657 7.98675 46.0232 5.26191C43.4806 2.53707 40.0333 1.00434 36.4375 1ZM25.5 41.9784C21.5056 39.4841 4.5 28.1212 4.5 15.5347C4.50347 12.6758 5.56474 9.93504 7.45107 7.9135C9.33741 5.89195 11.8948 4.75461 14.5625 4.75088C18.8172 4.75088 22.3894 7.17958 23.8813 11.0805C24.0131 11.4245 24.2374 11.7187 24.5256 11.9257C24.8138 12.1328 25.153 12.2433 25.5 12.2433C25.847 12.2433 26.1862 12.1328 26.4744 11.9257C26.7626 11.7187 26.9869 11.4245 27.1187 11.0805C28.6106 7.17255 32.1828 4.75088 36.4375 4.75088C39.1052 4.75461 41.6626 5.89195 43.5489 7.9135C45.4353 9.93504 46.4965 12.6758 46.5 15.5347C46.5 28.1025 29.49 39.4817 25.5 41.9784Z" fill="#080808" stroke="black" stroke-width="2"/>
</svg>
