<svg width="60" height="51" viewBox="0 0 60 51" fill="none" xmlns="http://www.w3.org/2000/svg">
<path d="M29.6096 49.3184V49.3184L29.5981 49.3184C29.3401 49.3199 29.0844 49.2705 28.8456 49.1729C28.6074 49.0756 28.3907 48.9324 28.2078 48.7513C28.2074 48.7509 28.2069 48.7505 28.2065 48.75L5.21391 25.7279C5.21336 25.7273 5.21281 25.7268 5.21226 25.7262C2.51367 22.9985 1 19.3164 1 15.4793C1 11.6426 2.51343 7.96073 5.21162 5.23312C7.93142 2.52225 11.6149 1 15.4551 1C19.2962 1 22.9806 2.52302 25.7006 5.23516C25.7007 5.23527 25.7008 5.23538 25.7009 5.23549L28.8967 8.43128L29.6038 9.13839L30.3109 8.43128L33.5067 5.23549C33.5068 5.23538 33.507 5.23527 33.5071 5.23516C36.2271 2.52302 39.9115 1 43.7526 1C47.5928 1 51.2763 2.52227 53.9961 5.23316C56.6943 7.96076 58.2077 11.6426 58.2077 15.4793C58.2077 19.3164 56.694 22.9986 53.9954 25.7263C53.9948 25.7268 53.9943 25.7273 53.9938 25.7279L31.0012 48.75C31.0008 48.7504 31.0004 48.7508 31 48.7512C30.8171 48.9323 30.6004 49.0756 30.3621 49.1729C30.1233 49.2705 29.8676 49.3199 29.6096 49.3184Z" fill="#231F20" stroke="white" stroke-width="2"/>
</svg>
