<svg width="26" height="26" viewBox="0 0 26 26" fill="none" xmlns="http://www.w3.org/2000/svg">
<path d="M13 7C11.8133 7 10.6533 7.35189 9.66658 8.01118C8.67988 8.67047 7.91085 9.60754 7.45672 10.7039C7.0026 11.8003 6.88378 13.0067 7.11529 14.1705C7.3468 15.3344 7.91824 16.4035 8.75736 17.2426C9.59647 18.0818 10.6656 18.6532 11.8295 18.8847C12.9933 19.1162 14.1997 18.9974 15.2961 18.5433C16.3925 18.0892 17.3295 17.3201 17.9888 16.3334C18.6481 15.3467 19 14.1867 19 13C18.9983 11.4092 18.3657 9.88405 17.2408 8.75919C16.116 7.63433 14.5908 7.00165 13 7ZM13 17C12.2089 17 11.4355 16.7654 10.7777 16.3259C10.1199 15.8864 9.60723 15.2616 9.30448 14.5307C9.00173 13.7998 8.92252 12.9956 9.07686 12.2196C9.2312 11.4437 9.61216 10.731 10.1716 10.1716C10.731 9.61216 11.4437 9.2312 12.2196 9.07686C12.9956 8.92252 13.7998 9.00173 14.5307 9.30448C15.2616 9.60723 15.8864 10.1199 16.3259 10.7777C16.7654 11.4355 17 12.2089 17 13C17 14.0609 16.5786 15.0783 15.8284 15.8284C15.0783 16.5786 14.0609 17 13 17ZM19 0H7C5.14409 0.00198528 3.36477 0.740121 2.05245 2.05245C0.740121 3.36477 0.00198528 5.14409 0 7V19C0.00198528 20.8559 0.740121 22.6352 2.05245 23.9476C3.36477 25.2599 5.14409 25.998 7 26H19C20.8559 25.998 22.6352 25.2599 23.9476 23.9476C25.2599 22.6352 25.998 20.8559 26 19V7C25.998 5.14409 25.2599 3.36477 23.9476 2.05245C22.6352 0.740121 20.8559 0.00198528 19 0ZM24 19C24 20.3261 23.4732 21.5979 22.5355 22.5355C21.5979 23.4732 20.3261 24 19 24H7C5.67392 24 4.40215 23.4732 3.46447 22.5355C2.52678 21.5979 2 20.3261 2 19V7C2 5.67392 2.52678 4.40215 3.46447 3.46447C4.40215 2.52678 5.67392 2 7 2H19C20.3261 2 21.5979 2.52678 22.5355 3.46447C23.4732 4.40215 24 5.67392 24 7V19ZM21 6.5C21 6.79667 20.912 7.08668 20.7472 7.33335C20.5824 7.58003 20.3481 7.77229 20.074 7.88582C19.7999 7.99935 19.4983 8.02906 19.2074 7.97118C18.9164 7.9133 18.6491 7.77044 18.4393 7.56066C18.2296 7.35088 18.0867 7.08361 18.0288 6.79264C17.9709 6.50166 18.0007 6.20006 18.1142 5.92597C18.2277 5.65189 18.42 5.41762 18.6666 5.2528C18.9133 5.08797 19.2033 5 19.5 5C19.8978 5 20.2794 5.15804 20.5607 5.43934C20.842 5.72064 21 6.10218 21 6.5Z" fill="white"/>
</svg>
