<svg width="26" height="26" viewBox="0 0 26 26" fill="none" xmlns="http://www.w3.org/2000/svg">
<path d="M24 0H2C1.46957 0 0.960859 0.210714 0.585786 0.585786C0.210714 0.960859 0 1.46957 0 2V24C0 24.5304 0.210714 25.0391 0.585786 25.4142C0.960859 25.7893 1.46957 26 2 26H24C24.5304 26 25.0391 25.7893 25.4142 25.4142C25.7893 25.0391 26 24.5304 26 24V2C26 1.46957 25.7893 0.960859 25.4142 0.585786C25.0391 0.210714 24.5304 0 24 0ZM24 24H2V2H24V24ZM9 11V19C9 19.2652 8.89464 19.5196 8.70711 19.7071C8.51957 19.8946 8.26522 20 8 20C7.73478 20 7.48043 19.8946 7.29289 19.7071C7.10536 19.5196 7 19.2652 7 19V11C7 10.7348 7.10536 10.4804 7.29289 10.2929C7.48043 10.1054 7.73478 10 8 10C8.26522 10 8.51957 10.1054 8.70711 10.2929C8.89464 10.4804 9 10.7348 9 11ZM20 14.5V19C20 19.2652 19.8946 19.5196 19.7071 19.7071C19.5196 19.8946 19.2652 20 19 20C18.7348 20 18.4804 19.8946 18.2929 19.7071C18.1054 19.5196 18 19.2652 18 19V14.5C18 13.837 17.7366 13.2011 17.2678 12.7322C16.7989 12.2634 16.163 12 15.5 12C14.837 12 14.2011 12.2634 13.7322 12.7322C13.2634 13.2011 13 13.837 13 14.5V19C13 19.2652 12.8946 19.5196 12.7071 19.7071C12.5196 19.8946 12.2652 20 12 20C11.7348 20 11.4804 19.8946 11.2929 19.7071C11.1054 19.5196 11 19.2652 11 19V11C11.0012 10.7551 11.0923 10.5191 11.256 10.3369C11.4197 10.1546 11.6446 10.0388 11.888 10.0114C12.1314 9.98392 12.3764 10.0468 12.5765 10.188C12.7767 10.3292 12.918 10.539 12.9738 10.7775C13.6502 10.3186 14.4389 10.0526 15.2552 10.0081C16.0714 9.96368 16.8844 10.1424 17.6067 10.5251C18.329 10.9078 18.9335 11.48 19.3551 12.1803C19.7768 12.8806 19.9997 13.6825 20 14.5ZM9.5 7.5C9.5 7.79667 9.41203 8.08668 9.2472 8.33335C9.08238 8.58003 8.84811 8.77229 8.57403 8.88582C8.29994 8.99935 7.99834 9.02906 7.70736 8.97118C7.41639 8.9133 7.14912 8.77044 6.93934 8.56066C6.72956 8.35088 6.5867 8.08361 6.52882 7.79264C6.47094 7.50166 6.50065 7.20006 6.61418 6.92597C6.72771 6.65189 6.91997 6.41762 7.16665 6.2528C7.41332 6.08797 7.70333 6 8 6C8.39782 6 8.77936 6.15804 9.06066 6.43934C9.34196 6.72064 9.5 7.10218 9.5 7.5Z" fill="white"/>
</svg>
