<svg width="31" height="31" viewBox="0 0 31 31" fill="none" xmlns="http://www.w3.org/2000/svg">
<path d="M24.2188 27.125H18.2295C19.2356 26.2266 20.1844 25.2661 21.0703 24.249C24.3943 20.4261 26.1562 16.3961 26.1562 12.5938C26.1562 9.76754 25.0335 7.05708 23.0351 5.05864C21.0367 3.06021 18.3262 1.9375 15.5 1.9375C12.6738 1.9375 9.96333 3.06021 7.96489 5.05864C5.96646 7.05708 4.84375 9.76754 4.84375 12.5938C4.84375 16.3961 6.60082 20.4261 9.92969 24.249C10.8156 25.2661 11.7644 26.2266 12.7705 27.125H6.78125C6.52432 27.125 6.27792 27.2271 6.09624 27.4087C5.91456 27.5904 5.8125 27.8368 5.8125 28.0938C5.8125 28.3507 5.91456 28.5971 6.09624 28.7788C6.27792 28.9604 6.52432 29.0625 6.78125 29.0625H24.2188C24.4757 29.0625 24.7221 28.9604 24.9038 28.7788C25.0854 28.5971 25.1875 28.3507 25.1875 28.0938C25.1875 27.8368 25.0854 27.5904 24.9038 27.4087C24.7221 27.2271 24.4757 27.125 24.2188 27.125ZM6.78125 12.5938C6.78125 10.2814 7.69983 8.06375 9.33491 6.42866C10.97 4.79358 13.1876 3.875 15.5 3.875C17.8124 3.875 20.03 4.79358 21.6651 6.42866C23.3002 8.06375 24.2188 10.2814 24.2188 12.5938C24.2188 19.5239 17.5017 25.3086 15.5 26.8828C13.4983 25.3086 6.78125 19.5239 6.78125 12.5938ZM20.3438 12.5938C20.3438 11.6357 20.0597 10.6993 19.5274 9.90271C18.9952 9.10616 18.2387 8.48532 17.3536 8.11871C16.4685 7.7521 15.4946 7.65617 14.555 7.84307C13.6154 8.02997 12.7524 8.49129 12.075 9.1687C11.3975 9.84611 10.9362 10.7092 10.7493 11.6488C10.5624 12.5884 10.6583 13.5623 11.025 14.4474C11.3916 15.3325 12.0124 16.0889 12.809 16.6212C13.6055 17.1534 14.542 17.4375 15.5 17.4375C16.7846 17.4375 18.0167 16.9272 18.925 16.0188C19.8334 15.1104 20.3438 13.8784 20.3438 12.5938ZM12.5938 12.5938C12.5938 12.0189 12.7642 11.4571 13.0835 10.9791C13.4029 10.5012 13.8568 10.1287 14.3878 9.90872C14.9189 9.68876 15.5032 9.6312 16.067 9.74334C16.6307 9.85548 17.1486 10.1323 17.555 10.5387C17.9615 10.9452 18.2383 11.463 18.3504 12.0268C18.4625 12.5905 18.405 13.1749 18.185 13.7059C17.9651 14.237 17.5926 14.6909 17.1146 15.0102C16.6367 15.3296 16.0748 15.5 15.5 15.5C14.7292 15.5 13.99 15.1938 13.445 14.6488C12.8999 14.1038 12.5938 13.3645 12.5938 12.5938Z" fill="white"/>
</svg>
