<svg width="17" height="17" viewBox="0 0 17 17" fill="none" xmlns="http://www.w3.org/2000/svg">
<path d="M16.5094 1.25V13.0313C16.5094 13.2716 16.4145 13.5021 16.2457 13.6721C16.0768 13.842 15.8478 13.9375 15.609 13.9375C15.3702 13.9375 15.1412 13.842 14.9723 13.6721C14.8035 13.5021 14.7086 13.2716 14.7086 13.0313V3.43746L1.84012 16.3912C1.67118 16.5612 1.44204 16.6568 1.20311 16.6568C0.964189 16.6568 0.73505 16.5612 0.566104 16.3912C0.397159 16.2211 0.302246 15.9905 0.302246 15.75C0.302246 15.5095 0.397159 15.2789 0.566104 15.1088L13.4357 2.15625H3.90422C3.66542 2.15625 3.43641 2.06077 3.26756 1.89082C3.09871 1.72086 3.00385 1.49035 3.00385 1.25C3.00385 1.00965 3.09871 0.77914 3.26756 0.609185C3.43641 0.43923 3.66542 0.34375 3.90422 0.34375H15.609C15.8478 0.34375 16.0768 0.43923 16.2457 0.609185C16.4145 0.77914 16.5094 1.00965 16.5094 1.25Z" fill="#646464"/>
</svg>
