<svg width="28" height="24" viewBox="0 0 28 24" fill="none" xmlns="http://www.w3.org/2000/svg">
<path d="M26.9247 3.61752C26.8491 3.43478 26.7209 3.27857 26.5565 3.16866C26.3921 3.05875 26.1988 3.00006 26.001 3.00002H22.1972C21.6654 2.09524 20.9085 1.34346 20.0002 0.817772C19.0918 0.292082 18.0629 0.0103673 17.0135 1.61059e-05C16.2316 -0.0102392 15.4556 0.135983 14.7311 0.43008C14.0066 0.724176 13.3482 1.16021 12.7947 1.71252C12.2251 2.27154 11.7729 2.93883 11.4649 3.67512C11.1568 4.41142 10.9991 5.20188 11.001 6.00002V6.76127C5.96848 5.43377 1.85223 1.34002 1.80848 1.29627C1.67431 1.16092 1.50427 1.06672 1.31837 1.02477C1.13247 0.982827 0.938457 0.994873 0.759174 1.05949C0.57989 1.12411 0.422805 1.23862 0.306416 1.38952C0.190028 1.54043 0.119184 1.72145 0.102226 1.91127C-0.436524 7.88502 1.29848 11.8825 2.85223 14.1838C3.60982 15.3214 4.53146 16.3407 5.58723 17.2088C3.68348 19.4 0.685976 20.5513 0.653476 20.5638C0.512368 20.6166 0.385028 20.7007 0.280971 20.8097C0.176913 20.9186 0.0988288 21.0497 0.0525519 21.1931C0.00627507 21.3365 -0.00699755 21.4885 0.0137255 21.6378C0.0344485 21.787 0.0886312 21.9296 0.172226 22.055C0.265976 22.195 0.640976 22.6863 1.55723 23.145C2.68973 23.7125 4.18598 24 6.00098 24C14.8347 24 22.216 17.1975 22.9697 8.44502L26.7085 4.70752C26.8483 4.56759 26.9435 4.38934 26.9819 4.19532C27.0204 4.0013 27.0005 3.80022 26.9247 3.61752ZM21.2997 7.29377C21.1283 7.46563 21.0252 7.694 21.0097 7.93627C20.501 15.8225 13.911 22 6.00098 22C4.68098 22 3.75098 21.825 3.09848 21.615C4.53723 20.8338 6.54348 19.49 7.83348 17.555C7.90919 17.4412 7.96077 17.3131 7.98505 17.1786C8.00933 17.0442 8.00577 16.9061 7.97462 16.773C7.94346 16.64 7.88535 16.5147 7.80389 16.405C7.72242 16.2952 7.61933 16.2034 7.50098 16.135C7.44223 16.1013 2.01223 12.8425 2.00098 4.13502C4.00098 5.76002 7.65723 8.28127 11.8347 8.98377C11.9779 9.00791 12.1246 9.00058 12.2647 8.96229C12.4047 8.924 12.5348 8.85568 12.6457 8.76206C12.7567 8.66845 12.846 8.55179 12.9073 8.42019C12.9687 8.28859 13.0006 8.14521 13.001 8.00002V6.00002C12.9999 5.46658 13.1054 4.9383 13.3115 4.44628C13.5176 3.95426 13.82 3.50842 14.201 3.13502C14.5662 2.76914 15.001 2.48018 15.4798 2.28524C15.9586 2.09029 16.4716 1.99331 16.9885 2.00002C18.571 2.02002 20.0497 2.98502 20.6685 4.40127C20.7465 4.57932 20.8747 4.73079 21.0374 4.83713C21.2001 4.94347 21.3903 5.00007 21.5847 5.00002H23.5847L21.2997 7.29377Z" fill="white"/>
</svg>
