<svg width="49" height="45" viewBox="0 0 49 45" fill="none" xmlns="http://www.w3.org/2000/svg">
<path d="M35.4375 0C30.9203 0 26.9653 2.08174 24.5 5.60054C22.0347 2.08174 18.0797 0 13.5625 0C9.96675 0.00434338 6.51942 1.53707 3.97684 4.26191C1.43426 6.98675 0.00405286 10.6812 0 14.5347C0 30.9448 22.7041 44.2276 23.6709 44.7762C23.9258 44.9231 24.2106 45 24.5 45C24.7894 45 25.0742 44.9231 25.3291 44.7762C26.2959 44.2276 49 30.9448 49 14.5347C48.9959 10.6812 47.5657 6.98675 45.0232 4.26191C42.4806 1.53707 39.0333 0.00434338 35.4375 0ZM24.5 40.9784C20.5056 38.4841 3.5 27.1212 3.5 14.5347C3.50347 11.6758 4.56474 8.93504 6.45107 6.9135C8.33741 4.89195 10.8948 3.75461 13.5625 3.75088C17.8172 3.75088 21.3894 6.17958 22.8813 10.0805C23.0131 10.4245 23.2374 10.7187 23.5256 10.9257C23.8138 11.1328 24.153 11.2433 24.5 11.2433C24.847 11.2433 25.1862 11.1328 25.4744 10.9257C25.7626 10.7187 25.9869 10.4245 26.1187 10.0805C27.6106 6.17255 31.1828 3.75088 35.4375 3.75088C38.1052 3.75461 40.6626 4.89195 42.5489 6.9135C44.4353 8.93504 45.4965 11.6758 45.5 14.5347C45.5 27.1025 28.49 38.4817 24.5 40.9784Z" fill="white"/>
</svg>
